REM MD5 230b8aa776e5cf4f2d93d576898fcd51
FILE "Official U.S. PlayStation Magazine Demo Disc 21 (USA).bin" BINARY
  TRACK 01 MODE2/2352
    INDEX 01 00:00:00
  TRACK 02 AUDIO
    INDEX 00 49:52:46
    INDEX 01 49:54:46
  TRACK 03 AUDIO
    INDEX 00 50:54:20
    INDEX 01 50:56:20
REM LEADOUT 51:02:16
